PathFileType	4	(X/Y/Z)	SUBJ11_3_walk_RCNL2025.trc
DataRate	CameraRate	NumFrames	NumMarkers	Units	OrigDataRate	OrigDataStartFrame	OrigNumFrames
100	100	12	25	mm	100	109	432
Frame#	Time	R_Shoulder			L_Shoulder			C7			J_Notch			R_Elbow			L_Elbow			R_Wrist			L_Wrist			R_Asis			L_Asis			Sacral			Thoracic			Sternum			R_Thigh_Lateral			R_Knee_Lateral			R_Shank_Lateral			R_Ankle_Lateral			R_Heel			R_Toe			L_Thigh_Lateral			L_Knee_Lateral			L_Shank_Lateral			L_Ankle_Lateral			L_Heel			L_Toe		
		X1	Y1	Z1	X2	Y2	Z2	X3	Y3	Z3	X4	Y4	Z4	X5	Y5	Z5	X6	Y6	Z6	X7	Y7	Z7	X8	Y8	Z8	X9	Y9	Z9	X10	Y10	Z10	X11	Y11	Z11	X12	Y12	Z12	X13	Y13	Z13	X14	Y14	Z14	X15	Y15	Z15	X16	Y16	Z16	X17	Y17	Z17	X18	Y18	Z18	X19	Y19	Z19	X20	Y20	Z20	X21	Y21	Z21	X22	Y22	Z22	X23	Y23	Z23	X24	Y24	Z24	X25	Y25	Z25
109	1.08000000	-586.906128	1458.079712	70.187988	-614.170227	1440.527588	-325.668182	-640.369141	1498.463135	-125.091316	-497.205566	1388.665649	-125.843216	-660.010071	1124.431152	166.135101	-677.222656	1098.527344	-393.717285	-612.954895	866.112823	161.702461	-622.327454	840.248138	-368.694122	-535.764282	975.071228	36.530178	-536.167664	971.171570	-257.271637	-712.243713	996.537415	-115.637383	-723.331482	1315.893555	-116.938599	-436.974670	1192.550415	-119.366043	-568.135925	629.742004	108.079338	-556.356262	483.647644	54.688019	-707.771545	347.526520	74.689911	-854.098755	216.810562	-4.415270	-894.993591	245.614960	-63.429447	-779.808533	99.030037	-21.686525	-584.941528	622.954895	-317.507263	-549.811279	471.639587	-231.733871	-558.484863	259.616364	-261.027802	-576.104004	68.692635	-187.472214	-636.070984	63.240685	-140.330399	-443.665894	49.811459	-145.742691
110	1.09000000	-577.059204	1459.066406	70.167252	-602.405762	1442.993286	-325.857117	-629.674744	1499.920776	-125.206673	-485.923798	1390.248901	-125.976624	-653.867798	1125.850220	164.673370	-660.415894	1100.244751	-395.356476	-608.694214	867.260895	159.953766	-599.950317	843.295380	-369.632523	-523.918945	977.384766	35.370731	-526.295471	972.731689	-257.932220	-701.527039	998.099182	-115.220009	-712.462402	1317.315063	-117.950554	-426.262756	1194.118286	-119.929604	-549.843933	632.817688	108.840294	-534.818298	486.633453	55.104652	-682.306274	346.589203	75.458672	-825.507690	212.303741	-3.554618	-868.011292	240.030365	-62.091724	-747.590149	97.410934	-21.632000	-580.595398	623.934937	-317.151245	-548.489441	471.813904	-231.369171	-558.917114	259.790405	-261.046814	-576.126953	68.793938	-187.433228	-636.064392	63.394466	-140.190002	-443.680542	49.816406	-145.882141
111	1.10000000	-567.172546	1459.778320	70.147026	-590.654663	1445.196777	-326.010956	-618.983521	1501.112061	-125.309647	-474.401581	1391.739014	-126.193283	-647.802673	1127.081299	163.267960	-643.603516	1101.781860	-396.968353	-604.308502	868.261566	158.251930	-577.515472	846.282257	-370.556656	-512.336121	979.333679	34.233273	-516.558838	973.972107	-258.538300	-690.913391	999.411072	-114.717934	-701.624207	1318.508545	-118.941017	-415.592041	1195.383789	-120.521286	-531.856445	635.738770	109.475662	-513.609070	489.408295	55.283756	-656.446411	344.788910	76.060753	-796.167114	206.681885	-2.720424	-840.337891	233.108765	-60.809536	-714.292175	95.107780	-21.481104	-576.271851	624.782410	-316.739990	-547.163574	471.976440	-230.954193	-559.307556	259.975983	-261.026581	-576.190002	68.874557	-187.384354	-636.074036	63.564091	-140.085388	-443.707001	49.822350	-146.017014
112	1.11000000	-557.234070	1460.202148	70.135765	-578.911499	1447.098389	-326.138702	-608.277405	1502.036499	-125.405495	-462.688934	1393.103149	-126.508377	-641.755737	1128.096680	161.913574	-626.790466	1103.095825	-398.548828	-599.794800	869.069672	156.586700	-555.064850	849.167389	-371.463837	-500.969940	980.904297	33.144867	-506.940277	974.864380	-259.103546	-680.386230	1000.465759	-114.145172	-690.816528	1319.472412	-119.900940	-404.962646	1196.331421	-121.130692	-514.168701	638.465332	109.968910	-492.749786	491.964844	55.226192	-630.300781	342.299164	76.464485	-766.120544	200.123093	-1.945794	-811.927429	224.998459	-59.673725	-680.049500	92.273956	-21.117680	-571.899292	625.499207	-316.310242	-545.810364	472.120514	-230.501129	-559.623779	260.179382	-260.967773	-576.302002	68.931252	-187.335312	-636.092834	63.744297	-140.015625	-443.749908	49.826508	-146.145767
113	1.12000000	-547.237366	1460.333740	70.142349	-567.175598	1448.670288	-326.243713	-597.540100	1502.698975	-125.496353	-450.839172	1394.302368	-126.938744	-635.665344	1128.873047	160.606461	-609.971680	1104.157104	-400.091827	-595.136414	869.649139	154.948723	-532.632965	851.921539	-372.347122	-489.770508	982.100037	32.128784	-497.394135	975.404724	-259.650055	-669.924133	1001.259521	-113.521622	-680.041931	1320.209961	-120.816742	-394.376038	1196.953613	-121.746674	-496.779602	640.965515	110.301224	-472.278564	494.311096	54.942005	-604.010498	339.323151	76.661163	-735.409058	192.810287	-1.254944	-782.742798	215.866348	-58.744560	-644.992126	89.060707	-20.483467	-567.430603	626.073975	-315.885834	-544.430542	472.243835	-230.019531	-559.867493	260.407471	-260.875854	-576.468384	68.968727	-187.295914	-636.118469	63.913971	-139.959183	-443.813507	49.825642	-146.267853
114	1.13000000	-537.182190	1460.177979	70.175247	-555.449585	1449.896973	-326.324921	-586.759094	1503.107422	-125.581627	-438.896729	1395.302979	-127.501541	-629.467896	1129.392212	159.344513	-593.134583	1104.952393	-401.589447	-590.309326	869.973419	153.329594	-510.246582	854.527130	-373.195694	-478.691772	982.934204	31.205631	-487.857208	975.609924	-260.198364	-659.504395	1001.791687	-112.871010	-669.305664	1320.727661	-121.672729	-383.833862	1197.252075	-122.354477	-479.702240	643.210327	110.448486	-452.250519	496.459503	54.448589	-577.735657	336.061981	76.665421	-704.071228	184.923126	-0.664679	-752.759460	205.888474	-58.046368	-609.239929	85.614433	-19.580673	-562.844177	626.495361	-315.479828	-543.038757	472.349548	-229.518982	-560.061890	260.663361	-260.759003	-576.690247	69.001160	-187.278763	-636.154907	64.050217	-139.890427	-443.902100	49.815937	-146.383728
115	1.14000000	-527.072876	1459.748047	70.241463	-543.738403	1450.776367	-326.378571	-575.929993	1503.271606	-125.655708	-426.895294	1396.081177	-128.213135	-623.098938	1129.643799	158.124863	-576.262390	1105.485107	-403.032166	-585.289398	870.025482	151.722263	-487.928726	856.977142	-373.996384	-467.696991	983.427002	30.393242	-478.270233	975.507874	-260.755981	-649.105896	1002.063782	-112.219933	-658.612732	1321.032715	-122.453888	-373.337891	1197.236938	-122.935005	-462.973480	645.171631	110.386902	-432.728546	498.416077	53.768345	-551.631226	332.682587	76.506737	-672.143982	176.631226	-0.186390	-721.967041	195.243149	-57.571724	-572.895752	82.074295	-18.468115	-558.140259	626.762390	-315.101440	-541.649963	472.444855	-229.012527	-560.230530	260.944336	-260.625122	-576.960266	69.048378	-187.295883	-636.206421	64.144203	-139.793701	-444.019623	49.793575	-146.494324
116	1.15000000	-516.915344	1459.062744	70.345406	-532.047607	1451.318115	-326.399017	-565.056213	1503.201660	-125.706474	-414.862244	1396.624268	-129.081375	-616.495483	1129.626099	156.941803	-559.337585	1105.773560	-404.409943	-580.056824	869.797943	150.121449	-465.701462	859.273102	-374.735001	-456.760040	983.606812	29.704809	-468.587585	975.129700	-261.313293	-638.709839	1002.079102	-111.597031	-647.964905	1321.130005	-123.148178	-362.890350	1196.924316	-123.466248	-446.654327	646.822937	110.101196	-413.769196	500.171326	52.926838	-525.815491	329.290619	76.216774	-639.664001	168.089676	0.172208	-690.375732	184.111893	-57.299072	-536.043640	78.571060	-17.252100	-553.333679	626.885315	-314.760895	-540.264832	472.538696	-228.519485	-560.377136	261.241699	-260.481659	-577.260071	69.122208	-187.345856	-636.272888	64.203232	-139.666763	-444.167877	49.755733	-146.599686
117	1.16000000	-506.713928	1458.144531	70.487869	-520.381409	1451.541626	-326.378998	-554.144653	1502.906006	-125.719215	-402.824982	1396.925537	-130.089081	-609.601624	1129.343872	155.788513	-542.345337	1105.847168	-405.713806	-574.597198	869.292114	148.524181	-443.586761	861.423431	-375.397659	-445.864380	983.507263	29.146103	-458.777832	974.507324	-261.848175	-628.299194	1001.841431	-111.031532	-637.358582	1321.021118	-123.746971	-352.491180	1196.332520	-123.925827	-430.817566	648.138489	109.590225	-395.411713	501.695831	51.953335	-500.345123	325.920746	75.820663	-606.666077	159.437561	0.404202	-658.020996	172.680252	-57.209930	-498.754730	75.227356	-16.070774	-548.441467	626.879089	-314.471771	-538.859253	472.638397	-228.064560	-560.475586	261.541412	-260.336823	-577.564392	69.216553	-187.407608	-636.349548	64.244286	-139.516602	-444.343292	49.702301	-146.698090
118	1.17000000	-496.469757	1457.016968	70.666451	-508.740326	1451.472534	-326.310730	-543.202087	1502.390625	-125.682114	-390.817169	1396.977417	-131.176590	-602.374023	1128.806152	154.660645	-525.277771	1105.742554	-406.936188	-568.899353	868.516266	146.930759	-421.606262	863.441528	-375.972107	-435.002350	983.159363	28.716127	-448.822601	973.670898	-262.334076	-617.859009	1001.353821	-110.551270	-626.784424	1320.705688	-124.244102	-342.134277	1195.481567	-124.293671	-415.525421	649.092285	108.868324	-377.673981	502.943054	50.881100	-475.208405	322.548431	75.334297	-573.180115	150.799210	0.499904	-624.959595	161.127640	-57.288879	-461.097504	72.158081	-15.072195	-543.465027	626.756165	-314.252533	-537.379578	472.745209	-227.672211	-560.469543	261.824646	-260.199188	-577.848816	69.315353	-187.454224	-636.428833	64.286781	-139.352844	-444.533020	49.638725	-146.786652
119	1.18000000	-486.182373	1455.703491	70.877899	-497.120453	1451.139160	-326.185913	-532.234497	1501.661499	-125.587830	-378.885254	1396.762939	-132.234482	-594.784119	1128.024414	153.557953	-508.137238	1105.497192	-408.070343	-562.953308	867.484009	145.345894	-399.781311	865.343475	-376.448364	-424.174133	982.585388	28.410852	-438.715698	972.647095	-262.746552	-607.378784	1000.619446	-110.178780	-616.228088	1320.183228	-124.635788	-331.807251	1194.391357	-124.553619	-400.811371	649.659668	107.963722	-360.557343	503.859161	49.743603	-450.336365	319.117157	74.765335	-539.228638	142.286865	0.445412	-591.261597	149.614288	-57.515137	-423.144745	69.471664	-14.393608	-538.375854	626.523804	-314.126495	-535.741760	472.849762	-227.359894	-560.279175	262.068512	-260.076019	-578.092957	69.405022	-187.467972	-636.501221	64.348297	-139.183777	-444.711334	49.579636	-146.863007
120	1.19000000	-475.851776	1454.225464	71.120529	-485.512268	1450.569702	-325.995422	-521.246155	1500.724731	-125.433174	-367.096344	1396.251099	-133.112686	-586.818909	1127.011475	152.484177	-490.939423	1105.145142	-409.110352	-556.748230	866.212585	143.779461	-378.133820	867.144928	-376.818527	-413.386230	981.795959	28.223743	-428.458466	971.458679	-263.067596	-596.853638	999.643677	-109.926758	-605.671692	1319.453003	-124.922485	-321.496033	1193.080933	-124.693100	-386.678680	649.821533	106.917114	-344.055603	504.393829	48.568245	-425.625427	315.569641	74.114883	-504.827393	134.004730	0.225412	-557.002258	138.279312	-57.861618	-384.972229	67.272789	-14.148206	-533.110657	626.183350	-314.117401	-533.833130	472.929749	-227.134720	-559.808289	262.247559	-259.972290	-578.278992	69.477509	-187.441818	-636.555908	64.443748	-139.015793	-444.843536	49.546112	-146.925842
